<?xml version="1.0" standalone="no"?><!DOCTYPE svg PUBLIC "-//W3C//DTD SVG 1.1//EN" "http://www.w3.org/Graphics/SVG/1.1/DTD/svg11.dtd"><svg t="1735892982581" class="icon" viewBox="0 0 1024 1024" version="1.1" xmlns="http://www.w3.org/2000/svg" p-id="15410" xmlns:xlink="http://www.w3.org/1999/xlink" width="200" height="200"><path d="M552.224 179.712v664.576l68.704-68.704a36.576 36.576 0 0 1 51.712 51.712l-130.24 130.208a36.48 36.48 0 0 1-26.72 11.648h-0.064-0.032c-9.024 0-17.28-3.264-23.648-8.704l0.064 0.032a36.48 36.48 0 0 1-4.576-3.872l-129.28-129.312a36.576 36.576 0 0 1 51.712-51.712l69.216 69.216V179.232l-69.216 69.216a36.576 36.576 0 0 1-51.712-51.712l129.28-129.28c1.472-1.472 2.976-2.752 4.576-3.904a36.48 36.48 0 0 1 50.4 2.944l0.032 0.032 130.24 130.208a36.576 36.576 0 0 1-51.712 51.712l-68.704-68.704z" p-id="15411" fill="#2c2c2c"></path></svg>