<?xml version="1.0" standalone="no"?><!DOCTYPE svg PUBLIC "-//W3C//DTD SVG 1.1//EN" "http://www.w3.org/Graphics/SVG/1.1/DTD/svg11.dtd"><svg t="1740288855242" class="icon" viewBox="0 0 1024 1024" version="1.1" xmlns="http://www.w3.org/2000/svg" p-id="38476" xmlns:xlink="http://www.w3.org/1999/xlink" width="200" height="200"><path d="M679.338667 849.152a4.266667 4.266667 0 0 0 6.656 0l161.792-202.24a4.266667 4.266667 0 0 0-3.328-6.912H736v-32a320 320 0 0 0-320-320H384V179.541333a4.266667 4.266667 0 0 0-6.912-3.328l-202.24 161.792a4.266667 4.266667 0 0 0 0 6.656l202.24 161.792A4.266667 4.266667 0 0 0 384 503.125333V394.666667h32a213.333333 213.333333 0 0 1 213.333333 213.333333V640h-108.458666a4.266667 4.266667 0 0 0-3.328 6.912l161.792 202.24z" fill="#000000" p-id="38477"></path><path d="M685.994667 849.152l-13.312-10.666667 13.312 10.666667z m-6.656 0l13.312-10.666667-13.312 10.666667z m168.448-202.24l-13.312-10.666667 13.312 10.666667zM736 640v17.066667h-17.066667V640h17.066667zM384 288v17.066667h-17.066667v-17.066667H384z m-6.912-111.786667l10.666667 13.312-10.666667-13.312z m-202.24 161.792l10.666667 13.312-10.666667-13.312z m0 6.656l-10.666667 13.312 10.666667-13.312z m202.24 161.792l10.666667-13.312-10.666667 13.312zM384 394.666667h-17.066667v-17.066667H384v17.066667zM629.333333 640h17.066667v17.066667h-17.066667V640z m-111.786666 6.912l-13.312 10.666667 13.312-10.666667z m181.76 212.906667a21.333333 21.333333 0 0 1-33.28 0l26.624-21.333334a12.8 12.8 0 0 0-19.968 0l26.624 21.333334z m161.792-202.24l-161.792 202.24-26.624-21.333334 161.792-202.24 26.624 21.333334z m-16.64-34.645334a21.333333 21.333333 0 0 1 16.64 34.645334l-26.624-21.333334a12.8 12.8 0 0 0 9.984 20.821334v-34.133334z m-108.458667 0h108.458667v34.133334H736v-34.133334z m-17.066667 17.066667v-32h34.133334V640h-34.133334z m0-32a302.933333 302.933333 0 0 0-302.933333-302.933333v-34.133334a337.066667 337.066667 0 0 1 337.066667 337.066667h-34.133334z m-302.933333-302.933333H384v-34.133334h32v34.133334zM401.066667 179.541333V288h-34.133334V179.541333h34.133334z m-34.645334-16.64a21.333333 21.333333 0 0 1 34.645334 16.64h-34.133334a12.8 12.8 0 0 0 20.778667 9.984l-21.333333-26.624zM164.181333 324.693333l202.24-161.792 21.333334 26.624-202.24 161.792-21.333334-26.624z m0 33.28a21.333333 21.333333 0 0 1 0-33.28l21.333334 26.624a12.8 12.8 0 0 0 0-19.968l-21.333334 26.624z m202.24 161.792L164.181333 357.973333l21.333334-26.624 202.24 161.792-21.333334 26.624z m34.645334-16.64a21.333333 21.333333 0 0 1-34.645334 16.64l21.333334-26.624a12.8 12.8 0 0 0-20.821334 9.984h34.133334z m0-108.458666v108.458666h-34.133334V394.666667h34.133334z m-17.066667-17.066667h32v34.133333H384v-34.133333z m32 0a230.4 230.4 0 0 1 230.4 230.4h-34.133333a196.266667 196.266667 0 0 0-196.266667-196.266667v-34.133333z m230.4 230.4V640h-34.133333v-32h34.133333z m-125.525333 14.933333h108.458666v34.133334h-108.458666v-34.133334z m-16.64 34.645334a21.333333 21.333333 0 0 1 16.64-34.645334v34.133334a12.8 12.8 0 0 0 9.984-20.778667l-26.624 21.333333z m161.792 202.24l-161.792-202.24 26.624-21.333334 161.792 202.24-26.624 21.333334z" fill="#FFFFFF" p-id="38478"></path></svg>